<svg width="32" height="32" viewBox="0 0 32 32" fill="none" xmlns="http://www.w3.org/2000/svg">
  <defs>
    <linearGradient id="gradient" x1="0%" y1="0%" x2="100%" y2="100%">
      <stop offset="0%" style="stop-color:#6366f1;stop-opacity:1" />
      <stop offset="100%" style="stop-color:#8b5cf6;stop-opacity:1" />
    </linearGradient>
  </defs>
  <rect width="32" height="32" rx="8" fill="url(#gradient)"/>
  <g transform="translate(4, 4)">
    <!-- Shield Icon (left side) -->
    <path d="M8 1.5L2 3.5v5c0 4.5 3.1 8.7 7.3 9.7 4.2-1 7.3-5.2 7.3-9.7v-5l-6-2z" fill="white" opacity="0.95"/>
    <path d="M8 1.5L2 3.5v5c0 4.5 3.1 8.7 7.3 9.7 4.2-1 7.3-5.2 7.3-9.7v-5l-6-2z" stroke="white" stroke-width="0.3" fill="none"/>
    
    <!-- Users Icon (right side) -->
    <g transform="translate(16, 0)">
      <circle cx="3" cy="3.5" r="2" fill="white" opacity="0.95"/>
      <path d="M1 10c0-1.8 1.5-3.2 3.2-3.2s3.2 1.4 3.2 3.2" stroke="white" stroke-width="0.8" fill="none" opacity="0.95"/>
      <circle cx="5.5" cy="1.5" r="1.2" fill="white" opacity="0.8"/>
      <path d="M3.8 6.5c0-0.9 0.7-1.6 1.6-1.6s1.6 0.7 1.6 1.6" stroke="white" stroke-width="0.6" fill="none" opacity="0.8"/>
    </g>
  </g>
</svg>
